<?xml version="1.0" encoding="UTF-8"?>
<svg xmlns="http://www.w3.org/2000/svg" viewBox="0 0 256 256">
  <defs>
    <linearGradient id="background" x1="0" y1="0" x2="1" y2="1">
      <stop offset="0" stop-color="#241547"/>
      <stop offset="1" stop-color="#632f88"/>
    </linearGradient>
  </defs>
  <rect width="256" height="256" rx="48" fill="url(#background)"/>
  <path d="M52 196V58h62c42 0 68 22 68 58s-26 59-68 59H88v21zm36-53h24c22 0 34-9 34-27 0-17-12-26-34-26H88z"
        fill="#f3e9ff"/>
  <circle cx="190" cy="190" r="24" fill="#61d2ff"/>
  <path d="m190 174 5 11 12 1-9 8 3 12-11-6-11 6 3-12-9-8 12-1z"
        fill="#241547"/>
</svg>
